<svg xmlns="http://www.w3.org/2000/svg" width="500px" viewBox="0 0 215 24">
    <path d="M137.091 6.68966C137.309 5.20437 138.986 4.536 140.589 4.61026C144.816 4.75879 144.379 7.80362 144.379 7.80362H149.481C149.481 3.79335 146.93 0.228672 140.735 0.00587931C136.362 -0.142649 131.843 2.53086 131.843 7.13524C131.916 15.8242 145.181 12.7793 144.67 16.9381C144.452 19.0175 142.484 19.3146 140.953 19.3146C138.84 19.3888 136.508 18.0521 136.726 15.7499H131.552C131.625 16.344 131.042 23.6962 140.881 23.8447C145.837 23.9189 149.845 20.9484 149.772 16.5668C149.626 7.72936 136.581 10.6257 137.091 6.68966Z" fill="#FD5000"/>
    <path d="M119.453 0.228372C113.259 0.228372 108.667 5.20407 108.667 12.1106C108.594 19.0172 112.967 24.2157 119.453 23.9929C126.013 24.0672 130.386 18.7202 130.24 12.1106C130.531 5.05555 125.794 0.154107 119.453 0.228372ZM119.453 19.1657C115.737 19.1657 113.987 15.6011 113.987 12.1106C114.06 8.62023 115.664 4.83275 119.526 4.90702C123.389 4.83275 124.992 8.4717 124.992 12.1106C124.701 15.4525 123.243 19.0915 119.453 19.1657Z" fill="#FD5000"/>
    <path d="M170.179 8.47161C170.397 4.16429 167.264 0.599609 163.255 0.599609H152.031V22.9531H157.133V15.8238H160.486L163.765 22.9531H169.377L165.733 15.4524C168.575 14.1157 169.96 11.7392 170.179 8.47161ZM162.381 11.3679H156.987V5.35252H162.235C163.765 5.35252 164.786 6.76354 164.859 8.32309C164.931 9.65984 163.911 11.3679 162.381 11.3679Z" fill="#FD5000"/>
    <path d="M177.831 0.599609L169.814 22.9531H175.353L176.665 19.0171H185.338L186.65 22.9531H192.116L184.099 0.599609H177.831ZM178.196 14.4127L181.038 6.31795V6.16942L183.808 14.3385L178.196 14.4127Z" fill="#FD5000"/>
    <path d="M214.782 23.0274L214.709 0.599609H209.389L203.85 9.80837L198.675 0.599609H192.991V22.9531H198.53V10.8481L203.923 19.6855L209.389 10.4767V23.0274H214.782Z" fill="#FD5000"/>
    <path d="M26.7475 23.25H31.922V11.1C31.922 9.825 32.1407 8.4 32.7966 7.2C33.4525 6.075 34.6186 5.1 36.5136 5.1C38.4085 5.175 39.4288 6 40.0847 7.2C40.6678 8.325 40.7407 9.675 40.7407 10.95V23.325H45.9153V10.875C45.9153 9.525 45.9881 8.325 46.6441 7.125C47.3 5.925 48.6119 5.1 50.4339 5.1C52.2559 5.1 53.2763 5.85 53.8593 6.975C54.5881 8.175 54.7339 9.75 54.7339 11.175V23.325H59.9085V10.875C59.9085 6.225 59.5441 4.35 57.5034 2.25C55.8271 0.449998 53.4949 0 51.6729 0C49.3407 0 47.4458 0.9 46.1339 2.175C45.4051 2.85 44.8949 3.6 44.5305 4.275C44.239 3.75 43.6559 2.775 43.2186 2.25C41.6152 0.449998 39.6475 0 37.8983 0C34.1085 0 31.9949 2.475 31.4847 3.525V0.675H26.6017V23.25H26.7475ZM5.17458 12.075C5.17458 8.625 7.57966 5.1 11.8068 5.1C14.9407 5.1 16.9814 6.975 17.8559 9.075C18.2932 10.05 18.5119 11.175 18.439 12.225C18.3661 13.35 18.1475 14.4 17.5644 15.45C16.5441 17.475 14.6492 19.05 11.7339 19.05C7.14237 18.975 5.17458 14.925 5.17458 12.075ZM23.6864 0.75H18.5119V4.05C17.5644 2.25 15.0864 0.0750003 11.1508 0.0750003C4.95593 0.0750003 0 4.95 0 12C0 18.375 4.08136 24 11.1508 24C14.2119 24 17.1271 22.725 18.5119 20.025V23.325H23.6864V0.75Z" fill="white"/>
    <path d="M86.7287 22.425C86.7287 23.025 86.4372 23.25 85.9271 23.25H85.8542C85.4898 23.25 85.2711 22.95 85.1982 22.5C85.344 21.975 85.6355 21.75 85.9999 21.75C86.4372 21.825 86.7287 22.125 86.7287 22.425Z" fill="white"/>
    <path d="M86.7287 20.5498V20.6998C86.6559 21.1498 86.4372 21.3748 85.9999 21.3748H85.8542C85.5626 21.3748 85.344 21.1498 85.1982 20.6998C85.1982 20.2498 85.4898 20.0248 85.9999 19.7998C86.4372 19.9498 86.7287 20.1748 86.7287 20.5498Z" fill="white"/>
    <path d="M86.7287 18.5996V18.7496C86.6559 19.1996 86.4372 19.4246 85.9999 19.4246C85.4898 19.3496 85.1982 19.1246 85.1982 18.7496C85.2711 18.1496 85.5626 17.8496 85.9999 17.8496C86.4372 18.0746 86.7287 18.2996 86.7287 18.5996Z" fill="white"/>
    <path d="M86.7289 16.7246C86.656 17.3246 86.4373 17.5496 86.0001 17.5496H85.9272C85.417 17.3996 85.1255 17.1746 85.1255 16.7996C85.2713 16.2746 85.4899 15.9746 85.9272 15.9746C86.4374 16.1246 86.7289 16.3496 86.7289 16.7246Z" fill="white"/>
    <path d="M86.7289 14.7744V14.9244C86.656 15.3744 86.4373 15.5994 86.0001 15.5994H85.9272C85.417 15.5244 85.1255 15.2244 85.1255 14.7744C85.1255 14.3994 85.417 14.0994 85.9272 14.0244C86.4374 14.2494 86.7289 14.4744 86.7289 14.7744Z" fill="white"/>
    <path d="M86.7287 12.8994V13.0494C86.7287 13.4994 86.4372 13.7244 85.7813 13.7244C85.344 13.4994 85.1982 13.2744 85.1982 12.9744C85.344 12.4494 85.5626 12.1494 85.9999 12.1494C86.4372 12.2994 86.7287 12.5244 86.7287 12.8994Z" fill="white"/>
    <path d="M86.7287 11.0244V11.1744C86.7287 11.6244 86.4372 11.8494 85.7813 11.9244C85.344 11.6994 85.1982 11.4744 85.1982 11.1744C85.344 10.6494 85.5626 10.4244 85.9999 10.4244C86.4372 10.3494 86.7287 10.5744 86.7287 11.0244Z" fill="white"/>
    <path d="M86.7289 9.07442V9.22442C86.7289 9.59942 86.4374 9.82441 85.9272 9.89941C85.417 9.74941 85.1255 9.52441 85.1255 9.14941C85.2713 8.62441 85.4899 8.39941 85.9272 8.39941H86.0001C86.4373 8.39941 86.7289 8.69942 86.7289 9.07442Z" fill="white"/>
    <path d="M86.7289 7.19942V7.34942C86.7289 7.72442 86.4374 7.94941 85.9272 8.02441C85.5628 8.02441 85.3441 7.72441 85.1255 7.27441C85.2713 6.74941 85.4899 6.52441 85.9272 6.52441H86.0001C86.4373 6.52441 86.7289 6.74942 86.7289 7.19942Z" fill="white"/>
    <path d="M86.7287 5.25019V5.40019C86.7287 5.77519 86.4372 6.07519 85.8542 6.15019C85.4169 6.00019 85.1982 5.70019 85.1982 5.25019C85.1982 4.87519 85.4898 4.6502 85.9999 4.5752C86.4372 4.6502 86.7287 4.87519 86.7287 5.25019Z" fill="white"/>
    <path d="M86.7287 3.375V3.525C86.7287 3.825 86.5101 4.125 85.9999 4.2C85.5626 4.2 85.344 3.9 85.1982 3.375C85.344 2.925 85.5626 2.625 85.8542 2.625H85.9999C86.4372 2.7 86.7287 3 86.7287 3.375Z" fill="white"/>
    <path d="M86.7287 1.4248V1.57481C86.7287 1.87481 86.5101 2.0998 85.9999 2.2498C85.5626 2.2498 85.344 1.9498 85.1982 1.3498C85.344 0.899804 85.5626 0.674805 85.8542 0.674805H85.9999C86.4372 0.824805 86.7287 1.0498 86.7287 1.4248Z" fill="white"/>
    <path d="M84.8339 22.425V22.575C84.761 23.1 84.5423 23.325 84.1779 23.325H84.0322C83.6678 23.325 83.4491 23.1 83.3033 22.575C83.3033 22.125 83.5949 21.9 84.1779 21.75C84.6152 21.825 84.8339 22.125 84.8339 22.425Z" fill="white"/>
    <path d="M84.8339 20.5498V20.6998C84.761 21.1498 84.5423 21.3748 84.1779 21.3748H84.0322C83.6678 21.3748 83.4491 21.1498 83.3033 20.6998C83.4491 20.1748 83.6677 19.7998 84.1779 19.7998C84.6152 19.9498 84.8339 20.1748 84.8339 20.5498Z" fill="white"/>
    <path d="M84.8339 18.5996V18.7496C84.761 19.1996 84.5423 19.4246 84.1779 19.4246C83.6677 19.3496 83.3033 19.0496 83.3033 18.5246C83.4491 18.0746 83.7406 17.8496 84.1779 17.8496C84.6152 18.0746 84.8339 18.2996 84.8339 18.5996Z" fill="white"/>
    <path d="M84.8339 16.7246C84.761 17.3246 84.5423 17.5496 84.1779 17.5496C83.6677 17.4746 83.3033 17.1746 83.3033 16.6496C83.3033 16.2746 83.5949 16.0496 84.1779 15.9746C84.6152 16.1246 84.8339 16.3496 84.8339 16.7246Z" fill="white"/>
    <path d="M84.8339 14.7744V14.9244C84.761 15.3744 84.5423 15.5994 84.1779 15.5994H84.105C83.6678 15.5994 83.4491 15.2994 83.3033 14.7744C83.3033 14.3994 83.5949 14.1744 84.1779 14.0244C84.6152 14.2494 84.8339 14.4744 84.8339 14.7744Z" fill="white"/>
    <path d="M84.8339 12.8994V13.0494C84.8339 13.4994 84.5423 13.7244 83.9593 13.7244C83.522 13.5744 83.3033 13.2744 83.3033 12.8244C83.4491 12.3744 83.7406 12.1494 84.105 12.1494C84.6152 12.2994 84.8339 12.5244 84.8339 12.8994Z" fill="white"/>
    <path d="M84.8339 11.0246V11.1746C84.8339 11.6246 84.5423 11.8496 83.9593 11.9246C83.522 11.7746 83.3033 11.4746 83.3033 11.0246C83.4491 10.5746 83.7406 10.3496 84.105 10.3496C84.6152 10.4246 84.8339 10.6496 84.8339 11.0246Z" fill="white"/>
    <path d="M84.8339 9.0752V9.2252C84.8339 9.6002 84.6152 9.82519 84.0322 9.90019C83.5949 9.90019 83.3762 9.6002 83.2305 9.0752C83.3762 8.6252 83.6677 8.3252 84.0322 8.3252H84.105C84.6152 8.4002 84.8339 8.7002 84.8339 9.0752Z" fill="white"/>
    <path d="M84.8339 7.2002V7.3502C84.8339 7.7252 84.6152 7.95019 84.0322 8.02519C83.5949 8.02519 83.3762 7.72519 83.2305 7.12519C83.2305 6.75019 83.522 6.5252 84.105 6.4502C84.6152 6.5252 84.8339 6.7502 84.8339 7.2002Z" fill="white"/>
    <path d="M84.8339 5.25019V5.40019C84.8339 5.77519 84.5423 6.07519 84.0322 6.15019C83.5949 6.00019 83.3033 5.70019 83.3033 5.25019C83.3033 4.87519 83.5949 4.6502 84.1779 4.5752C84.6152 4.6502 84.8339 4.87519 84.8339 5.25019Z" fill="white"/>
    <path d="M84.8339 3.375V3.525C84.8339 3.825 84.6152 4.125 84.1779 4.2C83.6677 4.125 83.3033 3.825 83.3033 3.375C83.4491 2.925 83.6678 2.625 84.0322 2.625H84.1779C84.6152 2.7 84.8339 3 84.8339 3.375Z" fill="white"/>
    <path d="M84.8339 1.4248V1.57481C84.8339 1.87481 84.6152 2.0998 84.1779 2.2498C83.7406 2.2498 83.522 1.9498 83.3033 1.3498C83.4491 0.899804 83.6678 0.674805 84.0322 0.674805H84.1779C84.6152 0.824805 84.8339 1.0498 84.8339 1.4248Z" fill="white"/>
    <path d="M83.0118 14.7744V14.9244C83.0118 15.2994 82.7932 15.5244 82.3559 15.5994C81.7728 15.5244 81.4813 15.2994 81.4813 14.7744C81.4813 14.3994 81.7728 14.1744 82.3559 14.0244C82.7932 14.2494 83.0118 14.4744 83.0118 14.7744Z" fill="white"/>
    <path d="M83.0118 12.8994V13.0494C83.0118 13.4994 82.7203 13.7244 82.1373 13.7244C81.7 13.5744 81.4813 13.2744 81.4813 12.8244C81.6271 12.3744 81.9186 12.1494 82.283 12.1494C82.7203 12.2994 83.0118 12.5244 83.0118 12.8994Z" fill="white"/>
    <path d="M83.0118 11.0246V11.1746C83.0118 11.6246 82.7203 11.8496 82.1373 11.9246C81.7 11.7746 81.4813 11.4746 81.4813 11.0246C81.6271 10.5746 81.9186 10.3496 82.283 10.3496C82.7203 10.4246 83.0118 10.6496 83.0118 11.0246Z" fill="white"/>
    <path d="M83.0118 9.0752V9.2252C83.0118 9.6002 82.7203 9.82519 82.2101 9.90019C81.7728 9.90019 81.5542 9.6002 81.4084 9.0752C81.4084 8.7002 81.7 8.4002 82.283 8.3252C82.6474 8.3252 82.8661 8.6252 83.0118 9.0752Z" fill="white"/>
    <path d="M82.283 0.75C82.7203 0.825 82.9389 1.05 82.9389 1.425C82.8661 2.025 82.6474 2.325 82.1373 2.325C81.6271 2.175 81.3356 1.95 81.3356 1.425C81.4813 0.975 81.7 0.75 81.9915 0.75H82.283Z" fill="white"/>
    <path d="M82.283 2.625C82.7203 2.7 82.9389 3 82.9389 3.375C82.8661 3.9 82.6474 4.2 82.283 4.2C81.7 4.125 81.4084 3.825 81.4084 3.375C81.5542 2.925 81.7728 2.625 82.0644 2.625H82.1373H82.283Z" fill="white"/>
    <path d="M82.283 4.5752C82.7203 4.6502 82.9389 4.87519 82.9389 5.25019C82.8661 5.85019 82.5745 6.15019 82.0644 6.15019C81.7 6.15019 81.4813 5.85019 81.4084 5.25019C81.4813 4.87519 81.7 4.6502 82.283 4.5752Z" fill="white"/>
    <path d="M82.283 6.4502C82.7203 6.5252 82.9389 6.75019 82.9389 7.12519C82.8661 7.72519 82.6474 8.02519 82.1373 8.02519C81.7 8.02519 81.4813 7.72519 81.3356 7.12519C81.4813 6.75019 81.7 6.5252 82.283 6.4502Z" fill="white"/>
    <path d="M83.0118 16.7996C82.939 17.3246 82.7203 17.5496 82.3559 17.5496C81.7728 17.4746 81.4813 17.1746 81.4813 16.6496C81.4813 16.2746 81.7728 16.0496 82.3559 15.9746C82.7932 16.1246 83.0118 16.4246 83.0118 16.7996Z" fill="white"/>
    <path d="M82.283 17.8496C82.6474 17.8496 82.8661 18.1496 82.9389 18.7496C82.8661 19.1996 82.6474 19.4246 82.283 19.4246C81.7 19.3496 81.4084 19.0496 81.4084 18.5246C81.4813 18.2246 81.7 17.9996 82.283 17.8496Z" fill="white"/>
    <path d="M82.283 19.7998C82.6474 19.7998 82.8661 20.0998 82.9389 20.6998C82.8661 21.1498 82.6474 21.3748 82.283 21.3748H82.1373C81.7729 21.3748 81.5542 21.0748 81.4813 20.5498C81.6271 20.0248 81.8457 19.7998 82.283 19.7998Z" fill="white"/>
    <path d="M83.0118 22.4997C82.939 23.0247 82.7203 23.2497 82.3559 23.2497H82.2101C81.8457 23.2497 81.6271 22.9497 81.5542 22.4997C81.5542 22.1247 81.8457 21.8997 82.3559 21.7497C82.6474 21.6747 82.939 21.9747 83.0118 22.4997Z" fill="white"/>
    <path d="M81.1169 5.25019V5.40019C81.1169 5.77519 80.8254 6.07519 80.2424 6.15019C79.8051 6.00019 79.5864 5.70019 79.5864 5.25019C79.5864 4.87519 79.8779 4.6502 80.3881 4.5752C80.8983 4.6502 81.1169 4.87519 81.1169 5.25019Z" fill="white"/>
    <path d="M81.1169 3.375V3.525C81.1169 3.825 80.8983 4.125 80.3881 4.2C79.9508 4.2 79.7322 3.9 79.5864 3.375C79.7322 2.925 79.9508 2.625 80.2424 2.625H80.3881C80.8983 2.7 81.1169 3 81.1169 3.375Z" fill="white"/>
    <path d="M81.1169 1.4248V1.57481C81.1169 1.87481 80.8983 2.0998 80.3881 2.2498C79.9508 2.2498 79.7322 1.9498 79.5864 1.3498C79.7322 0.899804 79.9508 0.674805 80.2424 0.674805H80.3881C80.8983 0.824805 81.1169 1.0498 81.1169 1.4248Z" fill="white"/>
    <path d="M79.3678 5.25019V5.40019C79.3678 5.77519 79.0763 6.07519 78.4932 6.15019C78.0559 6.00019 77.8373 5.70019 77.8373 5.25019C77.8373 4.87519 78.1288 4.6502 78.7119 4.5752C79.1491 4.6502 79.3678 4.87519 79.3678 5.25019Z" fill="white"/>
    <path d="M79.3678 3.375V3.525C79.3678 3.825 79.1491 4.125 78.7119 4.2C78.2746 4.2 77.983 3.9 77.8373 3.375C77.983 2.925 78.2017 2.625 78.4932 2.625H78.639C79.1491 2.7 79.3678 3 79.3678 3.375Z" fill="white"/>
    <path d="M79.3678 1.4248V1.57481C79.3678 1.87481 79.1491 2.0998 78.7119 2.2498C78.2746 2.2498 77.983 1.9498 77.8373 1.3498C77.983 0.899804 78.2017 0.674805 78.4932 0.674805H78.639C79.1491 0.824805 79.3678 1.0498 79.3678 1.4248Z" fill="white"/>
    <path d="M77.5458 20.5498V20.6998C77.4729 21.1498 77.2543 21.3748 76.817 21.3748H76.6712C76.3797 21.3748 76.161 21.1498 76.0153 20.6998C76.0881 20.1748 76.3797 19.7998 76.817 19.7998C77.2543 19.9498 77.5458 20.1748 77.5458 20.5498Z" fill="white"/>
    <path d="M77.5458 18.5996V18.7496C77.4729 19.1996 77.2543 19.4246 76.817 19.4246C76.3068 19.3496 76.0153 19.0496 76.0153 18.5246C76.161 18.0746 76.4526 17.8496 76.817 17.8496C77.2543 18.0746 77.5458 18.2996 77.5458 18.5996Z" fill="white"/>
    <path d="M77.5458 16.7246C77.4729 17.3246 77.2543 17.5496 76.817 17.5496C76.3068 17.4746 76.0153 17.1746 76.0153 16.6496C76.0153 16.2746 76.3068 16.0496 76.817 15.9746C77.2543 16.1246 77.5458 16.3496 77.5458 16.7246Z" fill="white"/>
    <path d="M77.5458 14.7744V14.9244C77.4729 15.3744 77.2542 15.5994 76.817 15.5994H76.7441C76.3068 15.5994 76.0881 15.2994 75.9424 14.7744C75.9424 14.3994 76.2339 14.1744 76.7441 14.0244C77.2542 14.2494 77.5458 14.4744 77.5458 14.7744Z" fill="white"/>
    <path d="M77.5458 12.8994V13.0494C77.5458 13.4994 77.2542 13.7244 76.5983 13.7244C76.161 13.5744 76.0153 13.2744 76.0153 12.8244C76.161 12.3744 76.3797 12.1494 76.817 12.1494C77.2543 12.2994 77.5458 12.5244 77.5458 12.8994Z" fill="white"/>
    <path d="M77.5458 11.0246V11.1746C77.5458 11.6246 77.2542 11.8496 76.5983 11.9246C76.161 11.7746 76.0153 11.4746 76.0153 11.0246C76.161 10.5746 76.3797 10.3496 76.817 10.3496C77.2543 10.4246 77.5458 10.6496 77.5458 11.0246Z" fill="white"/>
    <path d="M77.5458 9.0752V9.2252C77.5458 9.6002 77.2542 9.82519 76.7441 9.90019C76.3068 9.90019 76.0881 9.6002 75.9424 9.0752C76.0881 8.6252 76.3068 8.3252 76.7441 8.3252H76.817C77.2542 8.4002 77.5458 8.7002 77.5458 9.0752Z" fill="white"/>
    <path d="M77.5458 7.2002V7.3502C77.5458 7.7252 77.2542 7.95019 76.7441 8.02519C76.3068 8.02519 76.0881 7.72519 75.9424 7.12519C75.9424 6.75019 76.2339 6.5252 76.7441 6.4502C77.2542 6.5252 77.5458 6.7502 77.5458 7.2002Z" fill="white"/>
    <path d="M77.5458 5.25019V5.40019C77.5458 5.77519 77.2543 6.07519 76.6712 6.15019C76.2339 6.00019 76.0153 5.70019 76.0153 5.25019C76.0153 4.87519 76.3068 4.6502 76.817 4.5752C77.2543 4.6502 77.5458 4.87519 77.5458 5.25019Z" fill="white"/>
    <path d="M77.5458 3.375V3.525C77.5458 3.825 77.3271 4.125 76.817 4.2C76.3068 4.125 76.0153 3.825 76.0153 3.375C76.161 2.925 76.3797 2.625 76.6712 2.625H76.817C77.2543 2.7 77.5458 3 77.5458 3.375Z" fill="white"/>
    <path d="M77.5458 1.4248V1.57481C77.5458 1.87481 77.3271 2.0998 76.817 2.2498C76.3797 2.2498 76.161 1.9498 76.0153 1.3498C76.161 0.899804 76.3797 0.674805 76.6712 0.674805H76.817C77.2543 0.824805 77.5458 1.0498 77.5458 1.4248Z" fill="white"/>
    <path d="M75.6509 14.7744V14.9244C75.6509 15.2994 75.4322 15.5244 74.9949 15.5994C74.4848 15.5244 74.1204 15.2994 74.1204 14.7744C74.1204 14.3994 74.4119 14.1744 74.9949 14.0244C75.4322 14.2494 75.6509 14.4744 75.6509 14.7744Z" fill="white"/>
    <path d="M75.6509 12.8994V13.0494C75.6509 13.4994 75.3593 13.7244 74.7763 13.7244C74.339 13.5744 74.1204 13.2744 74.1204 12.8244C74.2661 12.3744 74.5576 12.1494 74.922 12.1494C75.4322 12.2994 75.6509 12.5244 75.6509 12.8994Z" fill="white"/>
    <path d="M75.6509 11.0246V11.1746C75.6509 11.6246 75.3593 11.8496 74.7763 11.9246C74.339 11.7746 74.1204 11.4746 74.1204 11.0246C74.2661 10.5746 74.5576 10.3496 74.922 10.3496C75.4322 10.4246 75.6509 10.6496 75.6509 11.0246Z" fill="white"/>
    <path d="M75.6509 9.0752V9.2252C75.6509 9.6002 75.4322 9.82519 74.8492 9.90019C74.4119 9.90019 74.1932 9.6002 74.0475 9.0752C74.0475 8.7002 74.339 8.4002 74.9221 8.3252C75.2865 8.3252 75.5051 8.6252 75.6509 9.0752Z" fill="white"/>
    <path d="M74.9221 0.75C75.3594 0.825 75.578 1.05 75.578 1.425C75.5051 2.025 75.2865 2.325 74.7763 2.325C74.2661 2.175 73.9746 1.95 73.9746 1.425C74.1204 0.975 74.339 0.75 74.7034 0.75H74.9221Z" fill="white"/>
    <path d="M74.9221 2.625C75.3594 2.7 75.578 3 75.578 3.375C75.5051 3.9 75.2865 4.2 74.9221 4.2C74.4119 4.125 74.0475 3.825 74.0475 3.375C74.1932 2.925 74.4119 2.625 74.7763 2.625H74.9221Z" fill="white"/>
    <path d="M74.9221 4.5752C75.3594 4.6502 75.578 4.87519 75.578 5.25019C75.5051 5.85019 75.2865 6.15019 74.7763 6.15019C74.4119 6.15019 74.1932 5.85019 74.0475 5.25019C74.1204 4.87519 74.4119 4.6502 74.9221 4.5752Z" fill="white"/>
    <path d="M74.9221 6.4502C75.3594 6.5252 75.578 6.75019 75.578 7.12519C75.5051 7.72519 75.2865 8.02519 74.7763 8.02519C74.339 8.02519 74.1204 7.72519 73.9746 7.12519C74.1204 6.75019 74.4119 6.5252 74.9221 6.4502Z" fill="white"/>
    <path d="M75.6509 16.7996C75.578 17.3246 75.3593 17.5496 74.9949 17.5496C74.4848 17.4746 74.1204 17.1746 74.1204 16.6496C74.1204 16.2746 74.4119 16.0496 75.0678 15.9746C75.4322 16.1246 75.6509 16.4246 75.6509 16.7996Z" fill="white"/>
    <path d="M74.9221 17.8496C75.2865 17.8496 75.578 18.1496 75.578 18.7496C75.5051 19.1996 75.2865 19.4246 74.9221 19.4246C74.4119 19.3496 74.0475 19.0496 74.0475 18.5246C74.1204 18.2246 74.4119 17.9996 74.9221 17.8496Z" fill="white"/>
    <path d="M74.9221 19.7998C75.2865 19.7998 75.578 20.0998 75.578 20.6998C75.5051 21.1498 75.2865 21.3748 74.9221 21.3748H74.7763C74.4119 21.3748 74.1932 21.0748 74.0475 20.5498C74.2661 20.0248 74.5577 19.7998 74.9221 19.7998Z" fill="white"/>
    <path d="M75.6509 22.4997C75.578 23.0247 75.3593 23.2497 74.9949 23.2497H74.8492C74.4848 23.2497 74.2661 22.9497 74.1204 22.4997C74.1204 22.1247 74.4119 21.8997 74.922 21.7497C75.3593 21.6747 75.578 21.9747 75.6509 22.4997Z" fill="white"/>
    <path d="M73.8288 22.425C73.8288 23.025 73.5373 23.25 73.0272 23.25H72.9543C72.5899 23.25 72.3712 22.95 72.2983 22.5C72.517 21.975 72.7356 21.75 73.1729 21.75C73.6102 21.825 73.8288 22.125 73.8288 22.425Z" fill="white"/>
    <path d="M73.8288 20.5498V20.6998C73.756 21.1498 73.5373 21.3748 73.1729 21.3748H72.9543C72.6627 21.3748 72.4441 21.1498 72.2983 20.6998C72.2983 20.2498 72.5899 20.0248 73.1729 19.7998C73.6102 19.9498 73.8288 20.1748 73.8288 20.5498Z" fill="white"/>
    <path d="M73.8288 18.5996V18.7496C73.756 19.1996 73.5373 19.4246 73.1729 19.4246C72.5899 19.3496 72.2983 19.1246 72.2983 18.7496C72.4441 18.1496 72.6627 17.8496 73.1729 17.8496C73.6102 18.0746 73.8288 18.2996 73.8288 18.5996Z" fill="white"/>
    <path d="M73.8288 16.7246C73.756 17.3246 73.5373 17.5496 73.1729 17.5496H73.1C72.5899 17.3996 72.2983 17.1746 72.2983 16.7996C72.4441 16.2746 72.7356 15.9746 73.1729 15.9746C73.6102 16.1246 73.8288 16.3496 73.8288 16.7246Z" fill="white"/>
    <path d="M73.8288 14.7744V14.9244C73.756 15.3744 73.5373 15.5994 73.1729 15.5994H73.1C72.5899 15.5244 72.2983 15.2244 72.2983 14.7744C72.2983 14.3994 72.5899 14.0994 73.1729 14.0244C73.6102 14.2494 73.8288 14.4744 73.8288 14.7744Z" fill="white"/>
    <path d="M73.8288 12.8994V13.0494C73.8288 13.4994 73.5373 13.7244 72.9543 13.7244C72.517 13.4994 72.2983 13.2744 72.2983 12.9744C72.4441 12.4494 72.6627 12.1494 73.1 12.1494C73.5373 12.2994 73.8288 12.5244 73.8288 12.8994Z" fill="white"/>
    <path d="M73.8288 11.0244V11.1744C73.8288 11.6244 73.5373 11.8494 72.9543 11.9244C72.517 11.6994 72.2983 11.4744 72.2983 11.1744C72.4441 10.6494 72.6627 10.4244 73.1 10.4244C73.5373 10.3494 73.8288 10.5744 73.8288 11.0244Z" fill="white"/>
    <path d="M73.8288 9.07442V9.22442C73.8288 9.59942 73.5373 9.82441 73.0272 9.89941C72.517 9.74941 72.2255 9.52441 72.2255 9.14941C72.3712 8.62441 72.5899 8.39941 73.0272 8.39941H73.1C73.6102 8.39941 73.8288 8.69942 73.8288 9.07442Z" fill="white"/>
    <path d="M73.8288 7.19942V7.34942C73.8288 7.72442 73.5373 7.94941 73.0272 8.02441C72.6628 8.02441 72.4441 7.72441 72.2255 7.27441C72.3712 6.74941 72.5899 6.52441 73.0272 6.52441H73.1C73.6102 6.52441 73.8288 6.74942 73.8288 7.19942Z" fill="white"/>
    <path d="M73.8288 5.25019V5.40019C73.8288 5.77519 73.5373 6.07519 72.9543 6.15019C72.517 6.00019 72.2983 5.70019 72.2983 5.25019C72.2983 4.87519 72.5899 4.6502 73.1729 4.5752C73.6102 4.6502 73.8288 4.87519 73.8288 5.25019Z" fill="white"/>
    <path d="M73.8288 3.375V3.525C73.8288 3.825 73.6102 4.125 73.1729 4.2C72.7356 4.2 72.517 3.9 72.2983 3.375C72.4441 2.925 72.6627 2.625 72.9543 2.625H73.1C73.6102 2.7 73.8288 3 73.8288 3.375Z" fill="white"/>
    <path d="M73.8288 1.4248V1.57481C73.8288 1.87481 73.6102 2.0998 73.1729 2.2498C72.7356 2.2498 72.517 1.9498 72.2983 1.3498C72.4441 0.899804 72.6627 0.674805 72.9543 0.674805H73.1C73.6102 0.824805 73.8288 1.0498 73.8288 1.4248Z" fill="white"/>
    <path d="M71.2051 17.8496C71.6424 17.8496 71.8611 18.1496 71.934 18.7496C71.8611 19.1996 71.6424 19.4246 71.2051 19.4246C70.695 19.3496 70.4034 19.0496 70.4034 18.5246C70.4034 18.2246 70.695 17.9996 71.2051 17.8496Z" fill="white"/>
    <path d="M71.2051 19.7998C71.6424 19.7998 71.8611 20.0998 71.934 20.6998C71.8611 21.1498 71.6424 21.3748 71.2051 21.3748H71.0594C70.695 21.3748 70.4763 21.0748 70.4034 20.5498C70.5492 20.0248 70.8407 19.7998 71.2051 19.7998Z" fill="white"/>
    <path d="M71.934 22.4997C71.8611 23.0247 71.6424 23.2497 71.2051 23.2497H71.0594C70.695 23.2497 70.4763 22.9497 70.4034 22.4997C70.4034 22.1247 70.6221 21.8997 71.2051 21.7497C71.5695 21.6747 71.8611 21.9747 71.934 22.4997Z" fill="white"/>
    <path d="M69.4559 17.8496C69.8203 17.8496 70.0389 18.1496 70.1118 18.7496C70.0389 19.1996 69.8203 19.4246 69.4559 19.4246C68.8728 19.3496 68.5813 19.0496 68.5813 18.5246C68.5813 18.2246 68.8728 17.9996 69.4559 17.8496Z" fill="white"/>
    <path d="M69.4559 19.7998C69.8203 19.7998 70.0389 20.0998 70.1118 20.6998C70.0389 21.1498 69.8203 21.3748 69.4559 21.3748H69.3101C68.9457 21.3748 68.7271 21.0748 68.6542 20.5498C68.7271 20.0248 69.0186 19.7998 69.4559 19.7998Z" fill="white"/>
    <path d="M70.1118 22.4997C70.0389 23.0247 69.8203 23.2497 69.4559 23.2497H69.3101C68.9457 23.2497 68.7271 22.9497 68.6542 22.4997C68.6542 22.1247 68.9457 21.8997 69.4559 21.7497C69.8203 21.6747 70.0389 21.9747 70.1118 22.4997Z" fill="white"/>
    <path d="M68.2898 14.7744V14.9244C68.2898 15.2994 67.9983 15.5244 67.561 15.5994C67.0508 15.5244 66.7593 15.2994 66.7593 14.7744C66.7593 14.3994 67.0508 14.1744 67.561 14.0244C67.9983 14.2494 68.2898 14.4744 68.2898 14.7744Z" fill="white"/>
    <path d="M68.2898 12.8994V13.0494C68.2898 13.4994 67.9983 13.7244 67.3423 13.7244C66.905 13.5744 66.7593 13.2744 66.7593 12.8244C66.905 12.3744 67.1237 12.1494 67.561 12.1494C67.9983 12.2994 68.2898 12.5244 68.2898 12.8994Z" fill="white"/>
    <path d="M68.2898 11.0246V11.1746C68.2898 11.6246 67.9983 11.8496 67.3423 11.9246C66.905 11.7746 66.7593 11.4746 66.7593 11.0246C66.905 10.5746 67.1237 10.3496 67.561 10.3496C67.9983 10.4246 68.2898 10.6496 68.2898 11.0246Z" fill="white"/>
    <path d="M68.2898 9.0752V9.2252C68.2898 9.6002 67.9983 9.82519 67.4881 9.90019C67.0508 9.90019 66.8322 9.6002 66.6864 9.0752C66.6864 8.7002 66.9779 8.4002 67.4881 8.3252C67.9254 8.3252 68.144 8.6252 68.2898 9.0752Z" fill="white"/>
    <path d="M67.561 0.75C67.9983 0.825 68.2898 1.05 68.2898 1.425C68.2169 2.025 67.9254 2.325 67.561 2.325C67.0508 2.175 66.7593 1.95 66.7593 1.425C66.905 0.975 67.1237 0.75 67.4152 0.75H67.561Z" fill="white"/>
    <path d="M67.561 2.625C67.9983 2.7 68.2898 3 68.2898 3.375C68.2169 3.9 67.9983 4.2 67.561 4.2C67.0508 4.125 66.7593 3.825 66.7593 3.375C66.905 2.925 67.1237 2.625 67.4152 2.625H67.561Z" fill="white"/>
    <path d="M67.561 4.5752C67.9983 4.6502 68.2898 4.87519 68.2898 5.25019C68.2169 5.85019 67.9254 6.15019 67.4152 6.15019C67.0508 6.15019 66.8322 5.85019 66.7593 5.25019C66.7593 4.87519 67.0508 4.6502 67.561 4.5752Z" fill="white"/>
    <path d="M67.561 6.4502C67.9983 6.5252 68.2898 6.75019 68.2898 7.12519C68.2169 7.72519 67.9254 8.02519 67.561 8.02519C67.1237 8.02519 66.905 7.72519 66.7593 7.12519C66.7593 6.75019 67.0508 6.5252 67.561 6.4502Z" fill="white"/>
    <path d="M68.2898 16.7996C68.2169 17.3246 67.9983 17.5496 67.561 17.5496C67.0508 17.4746 66.7593 17.1746 66.7593 16.6496C66.7593 16.2746 67.0508 16.0496 67.6339 15.9746C68.0711 16.1246 68.2898 16.4246 68.2898 16.7996Z" fill="white"/>
    <path d="M67.561 17.8496C67.9983 17.8496 68.2169 18.1496 68.2898 18.7496C68.2169 19.1996 67.9983 19.4246 67.561 19.4246C67.0508 19.3496 66.7593 19.0496 66.7593 18.5246C66.7593 18.2246 67.0508 17.9996 67.561 17.8496Z" fill="white"/>
    <path d="M67.561 19.7998C67.9983 19.7998 68.2169 20.0998 68.2898 20.6998C68.2169 21.1498 67.9983 21.3748 67.561 21.3748H67.4152C67.0508 21.3748 66.8322 21.0748 66.7593 20.5498C66.905 20.0248 67.1966 19.7998 67.561 19.7998Z" fill="white"/>
    <path d="M68.2898 22.4997C68.2169 23.0247 67.9983 23.2497 67.561 23.2497H67.4152C67.0508 23.2497 66.8322 22.9497 66.7593 22.4997C66.7593 22.1247 66.9779 21.8997 67.561 21.7497C67.9254 21.6747 68.2169 21.9747 68.2898 22.4997Z" fill="white"/>
    <path d="M66.3949 22.425C66.3949 23.025 66.1762 23.25 65.5932 23.25H65.5203C65.1559 23.25 64.9373 22.95 64.7915 22.5C65.0101 21.975 65.2288 21.75 65.6661 21.75C66.1762 21.825 66.3949 22.125 66.3949 22.425Z" fill="white"/>
    <path d="M66.3949 20.5498V20.6998C66.322 21.1498 66.1034 21.3748 65.739 21.3748H65.5932C65.2288 21.3748 65.0101 21.1498 64.8644 20.6998C64.8644 20.2498 65.1559 20.0248 65.739 19.7998C66.1762 19.9498 66.3949 20.1748 66.3949 20.5498Z" fill="white"/>
    <path d="M66.3949 18.5996V18.7496C66.322 19.1996 66.1034 19.4246 65.739 19.4246C65.2288 19.3496 64.8644 19.1246 64.8644 18.7496C65.0101 18.1496 65.2288 17.8496 65.739 17.8496C66.1762 18.0746 66.3949 18.2996 66.3949 18.5996Z" fill="white"/>
    <path d="M66.3949 16.7246C66.322 17.3246 66.1034 17.5496 65.739 17.5496H65.6661C65.1559 17.3996 64.8644 17.1746 64.8644 16.7996C65.0101 16.2746 65.3017 15.9746 65.739 15.9746C66.1762 16.1246 66.3949 16.3496 66.3949 16.7246Z" fill="white"/>
    <path d="M66.3949 14.7744V14.9244C66.322 15.3744 66.1034 15.5994 65.739 15.5994H65.6661C65.1559 15.5244 64.8644 15.2244 64.8644 14.7744C64.8644 14.3994 65.1559 14.0994 65.739 14.0244C66.1762 14.2494 66.3949 14.4744 66.3949 14.7744Z" fill="white"/>
    <path d="M66.3949 12.8994V13.0494C66.3949 13.4994 66.1034 13.7244 65.5203 13.7244C65.083 13.4994 64.8644 13.2744 64.8644 12.9744C65.0101 12.4494 65.2288 12.1494 65.6661 12.1494C66.1762 12.2994 66.3949 12.5244 66.3949 12.8994Z" fill="white"/>
    <path d="M66.3949 11.0244V11.1744C66.3949 11.6244 66.1034 11.8494 65.5203 11.9244C65.083 11.6994 64.8644 11.4744 64.8644 11.1744C65.0101 10.6494 65.2288 10.4244 65.6661 10.4244C66.1762 10.3494 66.3949 10.5744 66.3949 11.0244Z" fill="white"/>
    <path d="M66.3949 9.07442V9.22442C66.3949 9.59942 66.1762 9.82441 65.5932 9.89941C65.083 9.74941 64.7915 9.52441 64.7915 9.14941C64.9373 8.62441 65.1559 8.39941 65.5932 8.39941H65.6661C66.1762 8.39941 66.3949 8.69942 66.3949 9.07442Z" fill="white"/>
    <path d="M66.3949 7.19942V7.34942C66.3949 7.72442 66.1762 7.94941 65.5932 8.02441C65.2288 8.02441 65.0101 7.72441 64.7915 7.27441C64.9373 6.74941 65.1559 6.52441 65.5932 6.52441H65.6661C66.1762 6.52441 66.3949 6.74942 66.3949 7.19942Z" fill="white"/>
    <path d="M66.3949 5.25019V5.40019C66.3949 5.77519 66.1034 6.07519 65.5932 6.15019C65.083 6.00019 64.8644 5.70019 64.8644 5.25019C64.8644 4.87519 65.1559 4.6502 65.739 4.5752C66.1762 4.6502 66.3949 4.87519 66.3949 5.25019Z" fill="white"/>
    <path d="M66.3949 3.375V3.525C66.3949 3.825 66.1762 4.125 65.739 4.2C65.3017 4.2 65.083 3.9 64.8644 3.375C65.0101 2.925 65.2288 2.625 65.5932 2.625H65.739C66.1762 2.7 66.3949 3 66.3949 3.375Z" fill="white"/>
    <path d="M66.3949 1.4248V1.57481C66.3949 1.87481 66.1762 2.0998 65.739 2.2498C65.3017 2.2498 65.083 1.9498 64.8644 1.3498C65.0101 0.899804 65.2288 0.674805 65.5932 0.674805H65.739C66.1762 0.824805 66.3949 1.0498 66.3949 1.4248Z" fill="white"/>
    <path d="M64.5729 20.5498V20.6998C64.5 21.1498 64.2813 21.3748 63.9169 21.3748H63.7712C63.4796 21.3748 63.261 21.1498 63.1152 20.6998C63.1881 20.1748 63.4796 19.7998 63.9898 19.7998C64.3542 19.9498 64.5729 20.1748 64.5729 20.5498Z" fill="white"/>
    <path d="M64.5729 18.5996V18.7496C64.5 19.1996 64.2813 19.4246 63.9169 19.4246C63.3339 19.3496 63.0424 19.0496 63.0424 18.5246C63.1881 18.0746 63.4796 17.8496 63.9169 17.8496C64.3542 18.0746 64.5729 18.2996 64.5729 18.5996Z" fill="white"/>
    <path d="M64.5729 16.7246C64.5 17.3246 64.2813 17.5496 63.9169 17.5496C63.3339 17.4746 63.0424 17.1746 63.0424 16.6496C63.0424 16.2746 63.3339 16.0496 63.9169 15.9746C64.3542 16.1246 64.5729 16.3496 64.5729 16.7246Z" fill="white"/>
    <path d="M64.5729 14.7744V14.9244C64.5 15.3744 64.2813 15.5994 63.9169 15.5994H63.8441C63.4068 15.5994 63.1881 15.2994 63.0424 14.7744C63.0424 14.3994 63.3339 14.1744 63.9169 14.0244C64.3542 14.2494 64.5729 14.4744 64.5729 14.7744Z" fill="white"/>
    <path d="M64.5729 12.8994V13.0494C64.5729 13.4994 64.2813 13.7244 63.6983 13.7244C63.261 13.5744 63.0424 13.2744 63.0424 12.8244C63.1881 12.3744 63.4068 12.1494 63.8441 12.1494C64.2813 12.2994 64.5729 12.5244 64.5729 12.8994Z" fill="white"/>
    <path d="M64.5729 11.0246V11.1746C64.5729 11.6246 64.2813 11.8496 63.6983 11.9246C63.261 11.7746 63.0424 11.4746 63.0424 11.0246C63.1881 10.5746 63.4068 10.3496 63.8441 10.3496C64.2813 10.4246 64.5729 10.6496 64.5729 11.0246Z" fill="white"/>
    <path d="M64.5729 9.0752V9.2252C64.5729 9.6002 64.2814 9.82519 63.7712 9.90019C63.3339 9.90019 63.1152 9.6002 62.9695 9.0752C63.1152 8.6252 63.3339 8.3252 63.7712 8.3252H63.8441C64.3542 8.4002 64.5729 8.7002 64.5729 9.0752Z" fill="white"/>
    <path d="M64.5729 7.2002V7.3502C64.5729 7.7252 64.2814 7.95019 63.7712 8.02519C63.3339 8.02519 63.1152 7.72519 62.9695 7.12519C62.9695 6.75019 63.261 6.5252 63.8441 6.4502C64.3542 6.5252 64.5729 6.7502 64.5729 7.2002Z" fill="white"/>
    <path d="M64.5729 5.25019V5.40019C64.5729 5.77519 64.2813 6.07519 63.6983 6.15019C63.261 6.00019 63.0424 5.70019 63.0424 5.25019C63.0424 4.87519 63.3339 4.6502 63.9169 4.5752C64.3542 4.6502 64.5729 4.87519 64.5729 5.25019Z" fill="white"/>
    <path d="M64.5729 3.375V3.525C64.5729 3.825 64.3542 4.125 63.9169 4.2C63.3339 4.125 63.0424 3.825 63.0424 3.375C63.1881 2.925 63.4068 2.625 63.6983 2.625H63.8441C64.3542 2.7 64.5729 3 64.5729 3.375Z" fill="white"/>
    <path d="M64.6457 1.57488C64.6457 2.02488 64.2813 2.39988 63.8441 2.39988C63.4068 2.39988 63.0424 2.02488 63.0424 1.57488C63.0424 1.12488 63.4068 0.824881 63.8441 0.824881C64.2813 0.749881 64.6457 1.04988 64.6457 1.57488Z" fill="white"/>
</svg>