<svg xmlns="http://www.w3.org/2000/svg" width="500px" viewBox="0 0 215 24">
    <path d="M137.091 6.68966C137.309 5.20437 138.986 4.536 140.589 4.61026C144.816 4.75879 144.379 7.80362 144.379 7.80362H149.481C149.481 3.79335 146.93 0.228672 140.735 0.00587931C136.362 -0.142649 131.843 2.53086 131.843 7.13524C131.916 15.8242 145.181 12.7793 144.67 16.9381C144.452 19.0175 142.484 19.3146 140.953 19.3146C138.84 19.3888 136.508 18.0521 136.726 15.7499H131.552C131.625 16.344 131.042 23.6962 140.881 23.8447C145.837 23.9189 149.845 20.9484 149.772 16.5668C149.626 7.72936 136.581 10.6257 137.091 6.68966Z" fill="#FD5000"/>
    <path d="M119.453 0.228557C113.259 0.228557 108.667 5.20426 108.667 12.1108C108.594 19.0174 112.967 24.2159 119.453 23.9931C126.013 24.0674 130.386 18.7203 130.24 12.1108C130.531 5.05573 125.794 0.154292 119.453 0.228557ZM119.453 19.1659C115.737 19.1659 113.987 15.6012 113.987 12.1108C114.06 8.62041 115.664 4.83294 119.526 4.9072C123.389 4.83294 124.992 8.47188 124.992 12.1108C124.701 15.4527 123.243 19.0917 119.453 19.1659Z" fill="#FD5000"/>
    <path d="M170.179 8.47196C170.397 4.16463 167.264 0.599953 163.255 0.599953H152.031V22.9535H157.133V15.8241H160.486L163.765 22.9535H169.377L165.733 15.4528C168.575 14.116 169.96 11.7396 170.179 8.47196ZM162.381 11.3683H156.987V5.35286H162.235C163.765 5.35286 164.786 6.76388 164.859 8.32343C164.931 9.66019 163.911 11.3683 162.381 11.3683Z" fill="#FD5000"/>
    <path d="M177.831 0.599953L169.814 22.9535H175.353L176.665 19.0175H185.338L186.65 22.9535H192.116L184.099 0.599953H177.831ZM178.196 14.4131L181.038 6.3183V6.16977L183.808 14.3388L178.196 14.4131Z" fill="#FD5000"/>
    <path d="M214.782 23.0277L214.709 0.599953H209.389L203.85 9.80871L198.675 0.599953H192.991V22.9535H198.53V10.8484L203.923 19.6859L209.389 10.4771V23.0277H214.782Z" fill="#FD5000"/>
    <path d="M26.7475 23.25H31.922V11.1C31.922 9.825 32.1407 8.4 32.7966 7.2C33.4525 6.075 34.6186 5.1 36.5136 5.1C38.4085 5.175 39.4288 6 40.0847 7.2C40.6678 8.325 40.7407 9.675 40.7407 10.95V23.325H45.9153V10.875C45.9153 9.525 45.9881 8.325 46.6441 7.125C47.3 5.925 48.6119 5.1 50.4339 5.1C52.2559 5.1 53.2763 5.85 53.8593 6.975C54.5881 8.175 54.7339 9.75 54.7339 11.175V23.325H59.9085V10.875C59.9085 6.225 59.5441 4.35 57.5034 2.25C55.8271 0.449998 53.4949 0 51.6729 0C49.3407 0 47.4458 0.9 46.1339 2.175C45.4051 2.85 44.8949 3.6 44.5305 4.275C44.239 3.75 43.6559 2.775 43.2186 2.25C41.6152 0.449998 39.6475 0 37.8983 0C34.1085 0 31.9949 2.475 31.4847 3.525V0.675H26.6017V23.25H26.7475V23.25ZM5.17458 12.075C5.17458 8.625 7.57966 5.1 11.8068 5.1C14.9407 5.1 16.9814 6.975 17.8559 9.075C18.2932 10.05 18.5119 11.175 18.439 12.225C18.3661 13.35 18.1475 14.4 17.5644 15.45C16.5441 17.475 14.6492 19.05 11.7339 19.05C7.14237 18.975 5.17458 14.925 5.17458 12.075ZM23.6864 0.75H18.5119V4.05C17.5644 2.25 15.0864 0.0750003 11.1508 0.0750003C4.95593 0.0750003 0 4.95 0 12C0 18.375 4.08136 24 11.1508 24C14.2119 24 17.1271 22.725 18.5119 20.025V23.325H23.6864V0.75Z" fill="#46555F"/>
    <path d="M86.7287 22.425C86.7287 23.025 86.4372 23.25 85.9271 23.25H85.8542C85.4898 23.25 85.2711 22.95 85.1982 22.5C85.344 21.975 85.6355 21.75 85.9999 21.75C86.4372 21.825 86.7287 22.125 86.7287 22.425Z" fill="#46555F"/>
    <path d="M86.7287 20.5499V20.6999C86.6559 21.1499 86.4372 21.3749 85.9999 21.3749H85.8542C85.5626 21.3749 85.344 21.1499 85.1982 20.6999C85.1982 20.2499 85.4898 20.0249 85.9999 19.7999C86.4372 19.9499 86.7287 20.1749 86.7287 20.5499Z" fill="#46555F"/>
    <path d="M86.7287 18.5999V18.7499C86.6559 19.1999 86.4372 19.4249 85.9999 19.4249C85.4898 19.3499 85.1982 19.1249 85.1982 18.7499C85.2711 18.1499 85.5626 17.8499 85.9999 17.8499C86.4372 18.0749 86.7287 18.2999 86.7287 18.5999Z" fill="#46555F"/>
    <path d="M86.7289 16.7249C86.656 17.3249 86.4373 17.5499 86.0001 17.5499H85.9272C85.417 17.3999 85.1255 17.1749 85.1255 16.7999C85.2713 16.2749 85.4899 15.9749 85.9272 15.9749C86.4374 16.1249 86.7289 16.3499 86.7289 16.7249Z" fill="#46555F"/>
    <path d="M86.7289 14.775V14.925C86.656 15.375 86.4373 15.6 86.0001 15.6H85.9272C85.417 15.525 85.1255 15.225 85.1255 14.775C85.1255 14.4 85.417 14.1 85.9272 14.025C86.4374 14.25 86.7289 14.475 86.7289 14.775Z" fill="#46555F"/>
    <path d="M86.7287 12.9V13.05C86.7287 13.5 86.4372 13.725 85.7813 13.725C85.344 13.5 85.1982 13.275 85.1982 12.975C85.344 12.45 85.5626 12.15 85.9999 12.15C86.4372 12.3 86.7287 12.525 86.7287 12.9Z" fill="#46555F"/>
    <path d="M86.7287 11.0249V11.1749C86.7287 11.6249 86.4372 11.8499 85.7813 11.9249C85.344 11.6999 85.1982 11.4749 85.1982 11.1749C85.344 10.6499 85.5626 10.4249 85.9999 10.4249C86.4372 10.3499 86.7287 10.5749 86.7287 11.0249Z" fill="#46555F"/>
    <path d="M86.7289 9.07496V9.22497C86.7289 9.59997 86.4374 9.82496 85.9272 9.89996C85.417 9.74996 85.1255 9.52496 85.1255 9.14996C85.2713 8.62496 85.4899 8.39996 85.9272 8.39996H86.0001C86.4373 8.39996 86.7289 8.69996 86.7289 9.07496Z" fill="#46555F"/>
    <path d="M86.7289 7.19996V7.34997C86.7289 7.72497 86.4374 7.94996 85.9272 8.02496C85.5628 8.02496 85.3441 7.72496 85.1255 7.27496C85.2713 6.74996 85.4899 6.52496 85.9272 6.52496H86.0001C86.4373 6.52496 86.7289 6.74996 86.7289 7.19996Z" fill="#46555F"/>
    <path d="M86.7287 5.24989V5.39989C86.7287 5.77489 86.4372 6.07489 85.8542 6.14989C85.4169 5.99989 85.1982 5.69989 85.1982 5.24989C85.1982 4.87489 85.4898 4.64989 85.9999 4.57489C86.4372 4.64989 86.7287 4.87489 86.7287 5.24989Z" fill="#46555F"/>
    <path d="M86.7287 3.375V3.525C86.7287 3.825 86.5101 4.125 85.9999 4.2C85.5626 4.2 85.344 3.9 85.1982 3.375C85.344 2.925 85.5626 2.625 85.8542 2.625H85.9999C86.4372 2.7 86.7287 3 86.7287 3.375Z" fill="#46555F"/>
    <path d="M86.7287 1.42493V1.57493C86.7287 1.87493 86.5101 2.09993 85.9999 2.24993C85.5626 2.24993 85.344 1.94993 85.1982 1.34993C85.344 0.899926 85.5626 0.674927 85.8542 0.674927H85.9999C86.4372 0.824927 86.7287 1.04993 86.7287 1.42493Z" fill="#46555F"/>
    <path d="M84.8339 22.425V22.575C84.761 23.1 84.5423 23.325 84.1779 23.325H84.0322C83.6678 23.325 83.4491 23.1 83.3033 22.575C83.3033 22.125 83.5949 21.9 84.1779 21.75C84.6152 21.825 84.8339 22.125 84.8339 22.425Z" fill="#46555F"/>
    <path d="M84.8339 20.5499V20.6999C84.761 21.1499 84.5423 21.3749 84.1779 21.3749H84.0322C83.6678 21.3749 83.4491 21.1499 83.3033 20.6999C83.4491 20.1749 83.6677 19.7999 84.1779 19.7999C84.6152 19.9499 84.8339 20.1749 84.8339 20.5499Z" fill="#46555F"/>
    <path d="M84.8339 18.5999V18.7499C84.761 19.1999 84.5423 19.4249 84.1779 19.4249C83.6677 19.3499 83.3033 19.0499 83.3033 18.5249C83.4491 18.0749 83.7406 17.8499 84.1779 17.8499C84.6152 18.0749 84.8339 18.2999 84.8339 18.5999Z" fill="#46555F"/>
    <path d="M84.8339 16.7249C84.761 17.3249 84.5423 17.5499 84.1779 17.5499C83.6677 17.4749 83.3033 17.1749 83.3033 16.6499C83.3033 16.2749 83.5949 16.0499 84.1779 15.9749C84.6152 16.1249 84.8339 16.3499 84.8339 16.7249Z" fill="#46555F"/>
    <path d="M84.8339 14.775V14.925C84.761 15.375 84.5423 15.6 84.1779 15.6H84.105C83.6678 15.6 83.4491 15.3 83.3033 14.775C83.3033 14.4 83.5949 14.175 84.1779 14.025C84.6152 14.25 84.8339 14.475 84.8339 14.775Z" fill="#46555F"/>
    <path d="M84.8339 12.9V13.05C84.8339 13.5 84.5423 13.725 83.9593 13.725C83.522 13.575 83.3033 13.275 83.3033 12.825C83.4491 12.375 83.7406 12.15 84.105 12.15C84.6152 12.3 84.8339 12.525 84.8339 12.9Z" fill="#46555F"/>
    <path d="M84.8339 11.0249V11.1749C84.8339 11.6249 84.5423 11.8499 83.9593 11.9249C83.522 11.7749 83.3033 11.4749 83.3033 11.0249C83.4491 10.5749 83.7406 10.3499 84.105 10.3499C84.6152 10.4249 84.8339 10.6499 84.8339 11.0249Z" fill="#46555F"/>
    <path d="M84.8339 9.07489V9.22489C84.8339 9.59989 84.6152 9.82489 84.0322 9.89989C83.5949 9.89989 83.3762 9.59989 83.2305 9.07489C83.3762 8.62489 83.6677 8.32489 84.0322 8.32489H84.105C84.6152 8.39989 84.8339 8.69989 84.8339 9.07489Z" fill="#46555F"/>
    <path d="M84.8339 7.19989V7.34989C84.8339 7.72489 84.6152 7.94989 84.0322 8.02489C83.5949 8.02489 83.3762 7.72489 83.2305 7.12489C83.2305 6.74989 83.522 6.52489 84.105 6.44989C84.6152 6.52489 84.8339 6.74989 84.8339 7.19989Z" fill="#46555F"/>
    <path d="M84.8339 5.24989V5.39989C84.8339 5.77489 84.5423 6.07489 84.0322 6.14989C83.5949 5.99989 83.3033 5.69989 83.3033 5.24989C83.3033 4.87489 83.5949 4.64989 84.1779 4.57489C84.6152 4.64989 84.8339 4.87489 84.8339 5.24989Z" fill="#46555F"/>
    <path d="M84.8339 3.375V3.525C84.8339 3.825 84.6152 4.125 84.1779 4.2C83.6677 4.125 83.3033 3.825 83.3033 3.375C83.4491 2.925 83.6678 2.625 84.0322 2.625H84.1779C84.6152 2.7 84.8339 3 84.8339 3.375Z" fill="#46555F"/>
    <path d="M84.8339 1.42493V1.57493C84.8339 1.87493 84.6152 2.09993 84.1779 2.24993C83.7406 2.24993 83.522 1.94993 83.3033 1.34993C83.4491 0.899926 83.6678 0.674927 84.0322 0.674927H84.1779C84.6152 0.824927 84.8339 1.04993 84.8339 1.42493Z" fill="#46555F"/>
    <path d="M83.0118 14.775V14.925C83.0118 15.3 82.7932 15.525 82.3559 15.6C81.7728 15.525 81.4813 15.3 81.4813 14.775C81.4813 14.4 81.7728 14.175 82.3559 14.025C82.7932 14.25 83.0118 14.475 83.0118 14.775Z" fill="#46555F"/>
    <path d="M83.0118 12.9V13.05C83.0118 13.5 82.7203 13.725 82.1373 13.725C81.7 13.575 81.4813 13.275 81.4813 12.825C81.6271 12.375 81.9186 12.15 82.283 12.15C82.7203 12.3 83.0118 12.525 83.0118 12.9Z" fill="#46555F"/>
    <path d="M83.0118 11.0249V11.1749C83.0118 11.6249 82.7203 11.8499 82.1373 11.9249C81.7 11.7749 81.4813 11.4749 81.4813 11.0249C81.6271 10.5749 81.9186 10.3499 82.283 10.3499C82.7203 10.4249 83.0118 10.6499 83.0118 11.0249Z" fill="#46555F"/>
    <path d="M83.0118 9.07489V9.22489C83.0118 9.59989 82.7203 9.82489 82.2101 9.89989C81.7728 9.89989 81.5542 9.59989 81.4084 9.07489C81.4084 8.69989 81.7 8.39989 82.283 8.32489C82.6474 8.32489 82.8661 8.62489 83.0118 9.07489Z" fill="#46555F"/>
    <path d="M82.283 0.75C82.7203 0.825 82.9389 1.05 82.9389 1.425C82.8661 2.025 82.6474 2.325 82.1373 2.325C81.6271 2.175 81.3356 1.95 81.3356 1.425C81.4813 0.975 81.7 0.75 81.9915 0.75H82.283V0.75Z" fill="#46555F"/>
    <path d="M82.283 2.625C82.7203 2.7 82.9389 3 82.9389 3.375C82.8661 3.9 82.6474 4.2 82.283 4.2C81.7 4.125 81.4084 3.825 81.4084 3.375C81.5542 2.925 81.7728 2.625 82.0644 2.625H82.1373H82.283Z" fill="#46555F"/>
    <path d="M82.283 4.57489C82.7203 4.64989 82.9389 4.87489 82.9389 5.24989C82.8661 5.84989 82.5745 6.14989 82.0644 6.14989C81.7 6.14989 81.4813 5.84989 81.4084 5.24989C81.4813 4.87489 81.7 4.64989 82.283 4.57489Z" fill="#46555F"/>
    <path d="M82.283 6.44989C82.7203 6.52489 82.9389 6.74989 82.9389 7.12489C82.8661 7.72489 82.6474 8.02489 82.1373 8.02489C81.7 8.02489 81.4813 7.72489 81.3356 7.12489C81.4813 6.74989 81.7 6.52489 82.283 6.44989Z" fill="#46555F"/>
    <path d="M83.0118 16.7999C82.939 17.3249 82.7203 17.5499 82.3559 17.5499C81.7728 17.4749 81.4813 17.1749 81.4813 16.6499C81.4813 16.2749 81.7728 16.0499 82.3559 15.9749C82.7932 16.1249 83.0118 16.4249 83.0118 16.7999Z" fill="#46555F"/>
    <path d="M82.283 17.8499C82.6474 17.8499 82.8661 18.1499 82.9389 18.7499C82.8661 19.1999 82.6474 19.4249 82.283 19.4249C81.7 19.3499 81.4084 19.0499 81.4084 18.5249C81.4813 18.2249 81.7 17.9999 82.283 17.8499Z" fill="#46555F"/>
    <path d="M82.283 19.7999C82.6474 19.7999 82.8661 20.0999 82.9389 20.6999C82.8661 21.1499 82.6474 21.3749 82.283 21.3749H82.1373C81.7729 21.3749 81.5542 21.0749 81.4813 20.5499C81.6271 20.0249 81.8457 19.7999 82.283 19.7999Z" fill="#46555F"/>
    <path d="M83.0118 22.4999C82.939 23.0249 82.7203 23.2499 82.3559 23.2499H82.2101C81.8457 23.2499 81.6271 22.9499 81.5542 22.4999C81.5542 22.1249 81.8457 21.8999 82.3559 21.7499C82.6474 21.6749 82.939 21.9749 83.0118 22.4999Z" fill="#46555F"/>
    <path d="M81.1169 5.24989V5.39989C81.1169 5.77489 80.8254 6.07489 80.2424 6.14989C79.8051 5.99989 79.5864 5.69989 79.5864 5.24989C79.5864 4.87489 79.8779 4.64989 80.3881 4.57489C80.8983 4.64989 81.1169 4.87489 81.1169 5.24989Z" fill="#46555F"/>
    <path d="M81.1169 3.375V3.525C81.1169 3.825 80.8983 4.125 80.3881 4.2C79.9508 4.2 79.7322 3.9 79.5864 3.375C79.7322 2.925 79.9508 2.625 80.2424 2.625H80.3881C80.8983 2.7 81.1169 3 81.1169 3.375Z" fill="#46555F"/>
    <path d="M81.1169 1.42493V1.57493C81.1169 1.87493 80.8983 2.09993 80.3881 2.24993C79.9508 2.24993 79.7322 1.94993 79.5864 1.34993C79.7322 0.899926 79.9508 0.674927 80.2424 0.674927H80.3881C80.8983 0.824927 81.1169 1.04993 81.1169 1.42493Z" fill="#46555F"/>
    <path d="M79.3678 5.24989V5.39989C79.3678 5.77489 79.0763 6.07489 78.4932 6.14989C78.0559 5.99989 77.8373 5.69989 77.8373 5.24989C77.8373 4.87489 78.1288 4.64989 78.7119 4.57489C79.1491 4.64989 79.3678 4.87489 79.3678 5.24989Z" fill="#46555F"/>
    <path d="M79.3678 3.375V3.525C79.3678 3.825 79.1491 4.125 78.7119 4.2C78.2746 4.2 77.983 3.9 77.8373 3.375C77.983 2.925 78.2017 2.625 78.4932 2.625H78.639C79.1491 2.7 79.3678 3 79.3678 3.375Z" fill="#46555F"/>
    <path d="M79.3678 1.42493V1.57493C79.3678 1.87493 79.1491 2.09993 78.7119 2.24993C78.2746 2.24993 77.983 1.94993 77.8373 1.34993C77.983 0.899926 78.2017 0.674927 78.4932 0.674927H78.639C79.1491 0.824927 79.3678 1.04993 79.3678 1.42493Z" fill="#46555F"/>
    <path d="M77.5458 20.5499V20.6999C77.4729 21.1499 77.2543 21.3749 76.817 21.3749H76.6712C76.3797 21.3749 76.161 21.1499 76.0153 20.6999C76.0881 20.1749 76.3797 19.7999 76.817 19.7999C77.2543 19.9499 77.5458 20.1749 77.5458 20.5499Z" fill="#46555F"/>
    <path d="M77.5458 18.5999V18.7499C77.4729 19.1999 77.2543 19.4249 76.817 19.4249C76.3068 19.3499 76.0153 19.0499 76.0153 18.5249C76.161 18.0749 76.4526 17.8499 76.817 17.8499C77.2543 18.0749 77.5458 18.2999 77.5458 18.5999Z" fill="#46555F"/>
    <path d="M77.5458 16.7249C77.4729 17.3249 77.2543 17.5499 76.817 17.5499C76.3068 17.4749 76.0153 17.1749 76.0153 16.6499C76.0153 16.2749 76.3068 16.0499 76.817 15.9749C77.2543 16.1249 77.5458 16.3499 77.5458 16.7249Z" fill="#46555F"/>
    <path d="M77.5458 14.775V14.925C77.4729 15.375 77.2542 15.6 76.817 15.6H76.7441C76.3068 15.6 76.0881 15.3 75.9424 14.775C75.9424 14.4 76.2339 14.175 76.7441 14.025C77.2542 14.25 77.5458 14.475 77.5458 14.775Z" fill="#46555F"/>
    <path d="M77.5458 12.9V13.05C77.5458 13.5 77.2542 13.725 76.5983 13.725C76.161 13.575 76.0153 13.275 76.0153 12.825C76.161 12.375 76.3797 12.15 76.817 12.15C77.2543 12.3 77.5458 12.525 77.5458 12.9Z" fill="#46555F"/>
    <path d="M77.5458 11.0249V11.1749C77.5458 11.6249 77.2542 11.8499 76.5983 11.9249C76.161 11.7749 76.0153 11.4749 76.0153 11.0249C76.161 10.5749 76.3797 10.3499 76.817 10.3499C77.2543 10.4249 77.5458 10.6499 77.5458 11.0249Z" fill="#46555F"/>
    <path d="M77.5458 9.07489V9.22489C77.5458 9.59989 77.2542 9.82489 76.7441 9.89989C76.3068 9.89989 76.0881 9.59989 75.9424 9.07489C76.0881 8.62489 76.3068 8.32489 76.7441 8.32489H76.817C77.2542 8.39989 77.5458 8.69989 77.5458 9.07489Z" fill="#46555F"/>
    <path d="M77.5458 7.19989V7.34989C77.5458 7.72489 77.2542 7.94989 76.7441 8.02489C76.3068 8.02489 76.0881 7.72489 75.9424 7.12489C75.9424 6.74989 76.2339 6.52489 76.7441 6.44989C77.2542 6.52489 77.5458 6.74989 77.5458 7.19989Z" fill="#46555F"/>
    <path d="M77.5458 5.24989V5.39989C77.5458 5.77489 77.2543 6.07489 76.6712 6.14989C76.2339 5.99989 76.0153 5.69989 76.0153 5.24989C76.0153 4.87489 76.3068 4.64989 76.817 4.57489C77.2543 4.64989 77.5458 4.87489 77.5458 5.24989Z" fill="#46555F"/>
    <path d="M77.5458 3.375V3.525C77.5458 3.825 77.3271 4.125 76.817 4.2C76.3068 4.125 76.0153 3.825 76.0153 3.375C76.161 2.925 76.3797 2.625 76.6712 2.625H76.817C77.2543 2.7 77.5458 3 77.5458 3.375Z" fill="#46555F"/>
    <path d="M77.5458 1.42493V1.57493C77.5458 1.87493 77.3271 2.09993 76.817 2.24993C76.3797 2.24993 76.161 1.94993 76.0153 1.34993C76.161 0.899926 76.3797 0.674927 76.6712 0.674927H76.817C77.2543 0.824927 77.5458 1.04993 77.5458 1.42493Z" fill="#46555F"/>
    <path d="M75.6509 14.775V14.925C75.6509 15.3 75.4322 15.525 74.9949 15.6C74.4848 15.525 74.1204 15.3 74.1204 14.775C74.1204 14.4 74.4119 14.175 74.9949 14.025C75.4322 14.25 75.6509 14.475 75.6509 14.775Z" fill="#46555F"/>
    <path d="M75.6509 12.9V13.05C75.6509 13.5 75.3593 13.725 74.7763 13.725C74.339 13.575 74.1204 13.275 74.1204 12.825C74.2661 12.375 74.5576 12.15 74.922 12.15C75.4322 12.3 75.6509 12.525 75.6509 12.9Z" fill="#46555F"/>
    <path d="M75.6509 11.0249V11.1749C75.6509 11.6249 75.3593 11.8499 74.7763 11.9249C74.339 11.7749 74.1204 11.4749 74.1204 11.0249C74.2661 10.5749 74.5576 10.3499 74.922 10.3499C75.4322 10.4249 75.6509 10.6499 75.6509 11.0249Z" fill="#46555F"/>
    <path d="M75.6509 9.07489V9.22489C75.6509 9.59989 75.4322 9.82489 74.8492 9.89989C74.4119 9.89989 74.1932 9.59989 74.0475 9.07489C74.0475 8.69989 74.339 8.39989 74.9221 8.32489C75.2865 8.32489 75.5051 8.62489 75.6509 9.07489Z" fill="#46555F"/>
    <path d="M74.9221 0.75C75.3594 0.825 75.578 1.05 75.578 1.425C75.5051 2.025 75.2865 2.325 74.7763 2.325C74.2661 2.175 73.9746 1.95 73.9746 1.425C74.1204 0.975 74.339 0.75 74.7034 0.75H74.9221V0.75Z" fill="#46555F"/>
    <path d="M74.9221 2.625C75.3594 2.7 75.578 3 75.578 3.375C75.5051 3.9 75.2865 4.2 74.9221 4.2C74.4119 4.125 74.0475 3.825 74.0475 3.375C74.1932 2.925 74.4119 2.625 74.7763 2.625H74.9221Z" fill="#46555F"/>
    <path d="M74.9221 4.57489C75.3594 4.64989 75.578 4.87489 75.578 5.24989C75.5051 5.84989 75.2865 6.14989 74.7763 6.14989C74.4119 6.14989 74.1932 5.84989 74.0475 5.24989C74.1204 4.87489 74.4119 4.64989 74.9221 4.57489Z" fill="#46555F"/>
    <path d="M74.9221 6.44989C75.3594 6.52489 75.578 6.74989 75.578 7.12489C75.5051 7.72489 75.2865 8.02489 74.7763 8.02489C74.339 8.02489 74.1204 7.72489 73.9746 7.12489C74.1204 6.74989 74.4119 6.52489 74.9221 6.44989Z" fill="#46555F"/>
    <path d="M75.6509 16.7999C75.578 17.3249 75.3593 17.5499 74.9949 17.5499C74.4848 17.4749 74.1204 17.1749 74.1204 16.6499C74.1204 16.2749 74.4119 16.0499 75.0678 15.9749C75.4322 16.1249 75.6509 16.4249 75.6509 16.7999Z" fill="#46555F"/>
    <path d="M74.9221 17.8499C75.2865 17.8499 75.578 18.1499 75.578 18.7499C75.5051 19.1999 75.2865 19.4249 74.9221 19.4249C74.4119 19.3499 74.0475 19.0499 74.0475 18.5249C74.1204 18.2249 74.4119 17.9999 74.9221 17.8499Z" fill="#46555F"/>
    <path d="M74.9221 19.7999C75.2865 19.7999 75.578 20.0999 75.578 20.6999C75.5051 21.1499 75.2865 21.3749 74.9221 21.3749H74.7763C74.4119 21.3749 74.1932 21.0749 74.0475 20.5499C74.2661 20.0249 74.5577 19.7999 74.9221 19.7999Z" fill="#46555F"/>
    <path d="M75.6509 22.4999C75.578 23.0249 75.3593 23.2499 74.9949 23.2499H74.8492C74.4848 23.2499 74.2661 22.9499 74.1204 22.4999C74.1204 22.1249 74.4119 21.8999 74.922 21.7499C75.3593 21.6749 75.578 21.9749 75.6509 22.4999Z" fill="#46555F"/>
    <path d="M73.8288 22.425C73.8288 23.025 73.5373 23.25 73.0272 23.25H72.9543C72.5899 23.25 72.3712 22.95 72.2983 22.5C72.517 21.975 72.7356 21.75 73.1729 21.75C73.6102 21.825 73.8288 22.125 73.8288 22.425Z" fill="#46555F"/>
    <path d="M73.8288 20.5499V20.6999C73.756 21.1499 73.5373 21.3749 73.1729 21.3749H72.9543C72.6627 21.3749 72.4441 21.1499 72.2983 20.6999C72.2983 20.2499 72.5899 20.0249 73.1729 19.7999C73.6102 19.9499 73.8288 20.1749 73.8288 20.5499Z" fill="#46555F"/>
    <path d="M73.8288 18.5999V18.7499C73.756 19.1999 73.5373 19.4249 73.1729 19.4249C72.5899 19.3499 72.2983 19.1249 72.2983 18.7499C72.4441 18.1499 72.6627 17.8499 73.1729 17.8499C73.6102 18.0749 73.8288 18.2999 73.8288 18.5999Z" fill="#46555F"/>
    <path d="M73.8288 16.7249C73.756 17.3249 73.5373 17.5499 73.1729 17.5499H73.1C72.5899 17.3999 72.2983 17.1749 72.2983 16.7999C72.4441 16.2749 72.7356 15.9749 73.1729 15.9749C73.6102 16.1249 73.8288 16.3499 73.8288 16.7249Z" fill="#46555F"/>
    <path d="M73.8288 14.775V14.925C73.756 15.375 73.5373 15.6 73.1729 15.6H73.1C72.5899 15.525 72.2983 15.225 72.2983 14.775C72.2983 14.4 72.5899 14.1 73.1729 14.025C73.6102 14.25 73.8288 14.475 73.8288 14.775Z" fill="#46555F"/>
    <path d="M73.8288 12.9V13.05C73.8288 13.5 73.5373 13.725 72.9543 13.725C72.517 13.5 72.2983 13.275 72.2983 12.975C72.4441 12.45 72.6627 12.15 73.1 12.15C73.5373 12.3 73.8288 12.525 73.8288 12.9Z" fill="#46555F"/>
    <path d="M73.8288 11.0249V11.1749C73.8288 11.6249 73.5373 11.8499 72.9543 11.9249C72.517 11.6999 72.2983 11.4749 72.2983 11.1749C72.4441 10.6499 72.6627 10.4249 73.1 10.4249C73.5373 10.3499 73.8288 10.5749 73.8288 11.0249Z" fill="#46555F"/>
    <path d="M73.8288 9.07496V9.22497C73.8288 9.59997 73.5373 9.82496 73.0272 9.89996C72.517 9.74996 72.2255 9.52496 72.2255 9.14996C72.3712 8.62496 72.5899 8.39996 73.0272 8.39996H73.1C73.6102 8.39996 73.8288 8.69996 73.8288 9.07496Z" fill="#46555F"/>
    <path d="M73.8288 7.19996V7.34997C73.8288 7.72497 73.5373 7.94996 73.0272 8.02496C72.6628 8.02496 72.4441 7.72496 72.2255 7.27496C72.3712 6.74996 72.5899 6.52496 73.0272 6.52496H73.1C73.6102 6.52496 73.8288 6.74996 73.8288 7.19996Z" fill="#46555F"/>
    <path d="M73.8288 5.24989V5.39989C73.8288 5.77489 73.5373 6.07489 72.9543 6.14989C72.517 5.99989 72.2983 5.69989 72.2983 5.24989C72.2983 4.87489 72.5899 4.64989 73.1729 4.57489C73.6102 4.64989 73.8288 4.87489 73.8288 5.24989Z" fill="#46555F"/>
    <path d="M73.8288 3.375V3.525C73.8288 3.825 73.6102 4.125 73.1729 4.2C72.7356 4.2 72.517 3.9 72.2983 3.375C72.4441 2.925 72.6627 2.625 72.9543 2.625H73.1C73.6102 2.7 73.8288 3 73.8288 3.375Z" fill="#46555F"/>
    <path d="M73.8288 1.42493V1.57493C73.8288 1.87493 73.6102 2.09993 73.1729 2.24993C72.7356 2.24993 72.517 1.94993 72.2983 1.34993C72.4441 0.899926 72.6627 0.674927 72.9543 0.674927H73.1C73.6102 0.824927 73.8288 1.04993 73.8288 1.42493Z" fill="#46555F"/>
    <path d="M71.2051 17.8499C71.6424 17.8499 71.8611 18.1499 71.934 18.7499C71.8611 19.1999 71.6424 19.4249 71.2051 19.4249C70.695 19.3499 70.4034 19.0499 70.4034 18.5249C70.4034 18.2249 70.695 17.9999 71.2051 17.8499Z" fill="#46555F"/>
    <path d="M71.2051 19.7999C71.6424 19.7999 71.8611 20.0999 71.934 20.6999C71.8611 21.1499 71.6424 21.3749 71.2051 21.3749H71.0594C70.695 21.3749 70.4763 21.0749 70.4034 20.5499C70.5492 20.0249 70.8407 19.7999 71.2051 19.7999Z" fill="#46555F"/>
    <path d="M71.934 22.4999C71.8611 23.0249 71.6424 23.2499 71.2051 23.2499H71.0594C70.695 23.2499 70.4763 22.9499 70.4034 22.4999C70.4034 22.1249 70.6221 21.8999 71.2051 21.7499C71.5695 21.6749 71.8611 21.9749 71.934 22.4999Z" fill="#46555F"/>
    <path d="M69.4559 17.8499C69.8203 17.8499 70.0389 18.1499 70.1118 18.7499C70.0389 19.1999 69.8203 19.4249 69.4559 19.4249C68.8728 19.3499 68.5813 19.0499 68.5813 18.5249C68.5813 18.2249 68.8728 17.9999 69.4559 17.8499Z" fill="#46555F"/>
    <path d="M69.4559 19.7999C69.8203 19.7999 70.0389 20.0999 70.1118 20.6999C70.0389 21.1499 69.8203 21.3749 69.4559 21.3749H69.3101C68.9457 21.3749 68.7271 21.0749 68.6542 20.5499C68.7271 20.0249 69.0186 19.7999 69.4559 19.7999Z" fill="#46555F"/>
    <path d="M70.1118 22.4999C70.0389 23.0249 69.8203 23.2499 69.4559 23.2499H69.3101C68.9457 23.2499 68.7271 22.9499 68.6542 22.4999C68.6542 22.1249 68.9457 21.8999 69.4559 21.7499C69.8203 21.6749 70.0389 21.9749 70.1118 22.4999Z" fill="#46555F"/>
    <path d="M68.2898 14.775V14.925C68.2898 15.3 67.9983 15.525 67.561 15.6C67.0508 15.525 66.7593 15.3 66.7593 14.775C66.7593 14.4 67.0508 14.175 67.561 14.025C67.9983 14.25 68.2898 14.475 68.2898 14.775Z" fill="#46555F"/>
    <path d="M68.2898 12.9V13.05C68.2898 13.5 67.9983 13.725 67.3423 13.725C66.905 13.575 66.7593 13.275 66.7593 12.825C66.905 12.375 67.1237 12.15 67.561 12.15C67.9983 12.3 68.2898 12.525 68.2898 12.9Z" fill="#46555F"/>
    <path d="M68.2898 11.0249V11.1749C68.2898 11.6249 67.9983 11.8499 67.3423 11.9249C66.905 11.7749 66.7593 11.4749 66.7593 11.0249C66.905 10.5749 67.1237 10.3499 67.561 10.3499C67.9983 10.4249 68.2898 10.6499 68.2898 11.0249Z" fill="#46555F"/>
    <path d="M68.2898 9.07489V9.22489C68.2898 9.59989 67.9983 9.82489 67.4881 9.89989C67.0508 9.89989 66.8322 9.59989 66.6864 9.07489C66.6864 8.69989 66.9779 8.39989 67.4881 8.32489C67.9254 8.32489 68.144 8.62489 68.2898 9.07489Z" fill="#46555F"/>
    <path d="M67.561 0.75C67.9983 0.825 68.2898 1.05 68.2898 1.425C68.2169 2.025 67.9254 2.325 67.561 2.325C67.0508 2.175 66.7593 1.95 66.7593 1.425C66.905 0.975 67.1237 0.75 67.4152 0.75H67.561V0.75Z" fill="#46555F"/>
    <path d="M67.561 2.625C67.9983 2.7 68.2898 3 68.2898 3.375C68.2169 3.9 67.9983 4.2 67.561 4.2C67.0508 4.125 66.7593 3.825 66.7593 3.375C66.905 2.925 67.1237 2.625 67.4152 2.625H67.561Z" fill="#46555F"/>
    <path d="M67.561 4.57489C67.9983 4.64989 68.2898 4.87489 68.2898 5.24989C68.2169 5.84989 67.9254 6.14989 67.4152 6.14989C67.0508 6.14989 66.8322 5.84989 66.7593 5.24989C66.7593 4.87489 67.0508 4.64989 67.561 4.57489Z" fill="#46555F"/>
    <path d="M67.561 6.44989C67.9983 6.52489 68.2898 6.74989 68.2898 7.12489C68.2169 7.72489 67.9254 8.02489 67.561 8.02489C67.1237 8.02489 66.905 7.72489 66.7593 7.12489C66.7593 6.74989 67.0508 6.52489 67.561 6.44989Z" fill="#46555F"/>
    <path d="M68.2898 16.7999C68.2169 17.3249 67.9983 17.5499 67.561 17.5499C67.0508 17.4749 66.7593 17.1749 66.7593 16.6499C66.7593 16.2749 67.0508 16.0499 67.6339 15.9749C68.0711 16.1249 68.2898 16.4249 68.2898 16.7999Z" fill="#46555F"/>
    <path d="M67.561 17.8499C67.9983 17.8499 68.2169 18.1499 68.2898 18.7499C68.2169 19.1999 67.9983 19.4249 67.561 19.4249C67.0508 19.3499 66.7593 19.0499 66.7593 18.5249C66.7593 18.2249 67.0508 17.9999 67.561 17.8499Z" fill="#46555F"/>
    <path d="M67.561 19.7999C67.9983 19.7999 68.2169 20.0999 68.2898 20.6999C68.2169 21.1499 67.9983 21.3749 67.561 21.3749H67.4152C67.0508 21.3749 66.8322 21.0749 66.7593 20.5499C66.905 20.0249 67.1966 19.7999 67.561 19.7999Z" fill="#46555F"/>
    <path d="M68.2898 22.4999C68.2169 23.0249 67.9983 23.2499 67.561 23.2499H67.4152C67.0508 23.2499 66.8322 22.9499 66.7593 22.4999C66.7593 22.1249 66.9779 21.8999 67.561 21.7499C67.9254 21.6749 68.2169 21.9749 68.2898 22.4999Z" fill="#46555F"/>
    <path d="M66.3949 22.425C66.3949 23.025 66.1762 23.25 65.5932 23.25H65.5203C65.1559 23.25 64.9373 22.95 64.7915 22.5C65.0101 21.975 65.2288 21.75 65.6661 21.75C66.1762 21.825 66.3949 22.125 66.3949 22.425Z" fill="#46555F"/>
    <path d="M66.3949 20.5499V20.6999C66.322 21.1499 66.1034 21.3749 65.739 21.3749H65.5932C65.2288 21.3749 65.0101 21.1499 64.8644 20.6999C64.8644 20.2499 65.1559 20.0249 65.739 19.7999C66.1762 19.9499 66.3949 20.1749 66.3949 20.5499Z" fill="#46555F"/>
    <path d="M66.3949 18.5999V18.7499C66.322 19.1999 66.1034 19.4249 65.739 19.4249C65.2288 19.3499 64.8644 19.1249 64.8644 18.7499C65.0101 18.1499 65.2288 17.8499 65.739 17.8499C66.1762 18.0749 66.3949 18.2999 66.3949 18.5999Z" fill="#46555F"/>
    <path d="M66.3949 16.7249C66.322 17.3249 66.1034 17.5499 65.739 17.5499H65.6661C65.1559 17.3999 64.8644 17.1749 64.8644 16.7999C65.0101 16.2749 65.3017 15.9749 65.739 15.9749C66.1762 16.1249 66.3949 16.3499 66.3949 16.7249Z" fill="#46555F"/>
    <path d="M66.3949 14.775V14.925C66.322 15.375 66.1034 15.6 65.739 15.6H65.6661C65.1559 15.525 64.8644 15.225 64.8644 14.775C64.8644 14.4 65.1559 14.1 65.739 14.025C66.1762 14.25 66.3949 14.475 66.3949 14.775Z" fill="#46555F"/>
    <path d="M66.3949 12.9V13.05C66.3949 13.5 66.1034 13.725 65.5203 13.725C65.083 13.5 64.8644 13.275 64.8644 12.975C65.0101 12.45 65.2288 12.15 65.6661 12.15C66.1762 12.3 66.3949 12.525 66.3949 12.9Z" fill="#46555F"/>
    <path d="M66.3949 11.0249V11.1749C66.3949 11.6249 66.1034 11.8499 65.5203 11.9249C65.083 11.6999 64.8644 11.4749 64.8644 11.1749C65.0101 10.6499 65.2288 10.4249 65.6661 10.4249C66.1762 10.3499 66.3949 10.5749 66.3949 11.0249Z" fill="#46555F"/>
    <path d="M66.3949 9.07496V9.22497C66.3949 9.59997 66.1762 9.82496 65.5932 9.89996C65.083 9.74996 64.7915 9.52496 64.7915 9.14996C64.9373 8.62496 65.1559 8.39996 65.5932 8.39996H65.6661C66.1762 8.39996 66.3949 8.69996 66.3949 9.07496Z" fill="#46555F"/>
    <path d="M66.3949 7.19996V7.34997C66.3949 7.72497 66.1762 7.94996 65.5932 8.02496C65.2288 8.02496 65.0101 7.72496 64.7915 7.27496C64.9373 6.74996 65.1559 6.52496 65.5932 6.52496H65.6661C66.1762 6.52496 66.3949 6.74996 66.3949 7.19996Z" fill="#46555F"/>
    <path d="M66.3949 5.24989V5.39989C66.3949 5.77489 66.1034 6.07489 65.5932 6.14989C65.083 5.99989 64.8644 5.69989 64.8644 5.24989C64.8644 4.87489 65.1559 4.64989 65.739 4.57489C66.1762 4.64989 66.3949 4.87489 66.3949 5.24989Z" fill="#46555F"/>
    <path d="M66.3949 3.375V3.525C66.3949 3.825 66.1762 4.125 65.739 4.2C65.3017 4.2 65.083 3.9 64.8644 3.375C65.0101 2.925 65.2288 2.625 65.5932 2.625H65.739C66.1762 2.7 66.3949 3 66.3949 3.375Z" fill="#46555F"/>
    <path d="M66.3949 1.42493V1.57493C66.3949 1.87493 66.1762 2.09993 65.739 2.24993C65.3017 2.24993 65.083 1.94993 64.8644 1.34993C65.0101 0.899926 65.2288 0.674927 65.5932 0.674927H65.739C66.1762 0.824927 66.3949 1.04993 66.3949 1.42493Z" fill="#46555F"/>
    <path d="M64.5729 20.5499V20.6999C64.5 21.1499 64.2813 21.3749 63.9169 21.3749H63.7712C63.4796 21.3749 63.261 21.1499 63.1152 20.6999C63.1881 20.1749 63.4796 19.7999 63.9898 19.7999C64.3542 19.9499 64.5729 20.1749 64.5729 20.5499Z" fill="#46555F"/>
    <path d="M64.5729 18.5999V18.7499C64.5 19.1999 64.2813 19.4249 63.9169 19.4249C63.3339 19.3499 63.0424 19.0499 63.0424 18.5249C63.1881 18.0749 63.4796 17.8499 63.9169 17.8499C64.3542 18.0749 64.5729 18.2999 64.5729 18.5999Z" fill="#46555F"/>
    <path d="M64.5729 16.7249C64.5 17.3249 64.2813 17.5499 63.9169 17.5499C63.3339 17.4749 63.0424 17.1749 63.0424 16.6499C63.0424 16.2749 63.3339 16.0499 63.9169 15.9749C64.3542 16.1249 64.5729 16.3499 64.5729 16.7249Z" fill="#46555F"/>
    <path d="M64.5729 14.775V14.925C64.5 15.375 64.2813 15.6 63.9169 15.6H63.8441C63.4068 15.6 63.1881 15.3 63.0424 14.775C63.0424 14.4 63.3339 14.175 63.9169 14.025C64.3542 14.25 64.5729 14.475 64.5729 14.775Z" fill="#46555F"/>
    <path d="M64.5729 12.9V13.05C64.5729 13.5 64.2813 13.725 63.6983 13.725C63.261 13.575 63.0424 13.275 63.0424 12.825C63.1881 12.375 63.4068 12.15 63.8441 12.15C64.2813 12.3 64.5729 12.525 64.5729 12.9Z" fill="#46555F"/>
    <path d="M64.5729 11.0249V11.1749C64.5729 11.6249 64.2813 11.8499 63.6983 11.9249C63.261 11.7749 63.0424 11.4749 63.0424 11.0249C63.1881 10.5749 63.4068 10.3499 63.8441 10.3499C64.2813 10.4249 64.5729 10.6499 64.5729 11.0249Z" fill="#46555F"/>
    <path d="M64.5729 9.07489V9.22489C64.5729 9.59989 64.2814 9.82489 63.7712 9.89989C63.3339 9.89989 63.1152 9.59989 62.9695 9.07489C63.1152 8.62489 63.3339 8.32489 63.7712 8.32489H63.8441C64.3542 8.39989 64.5729 8.69989 64.5729 9.07489Z" fill="#46555F"/>
    <path d="M64.5729 7.19989V7.34989C64.5729 7.72489 64.2814 7.94989 63.7712 8.02489C63.3339 8.02489 63.1152 7.72489 62.9695 7.12489C62.9695 6.74989 63.261 6.52489 63.8441 6.44989C64.3542 6.52489 64.5729 6.74989 64.5729 7.19989Z" fill="#46555F"/>
    <path d="M64.5729 5.24989V5.39989C64.5729 5.77489 64.2813 6.07489 63.6983 6.14989C63.261 5.99989 63.0424 5.69989 63.0424 5.24989C63.0424 4.87489 63.3339 4.64989 63.9169 4.57489C64.3542 4.64989 64.5729 4.87489 64.5729 5.24989Z" fill="#46555F"/>
    <path d="M64.5729 3.375V3.525C64.5729 3.825 64.3542 4.125 63.9169 4.2C63.3339 4.125 63.0424 3.825 63.0424 3.375C63.1881 2.925 63.4068 2.625 63.6983 2.625H63.8441C64.3542 2.7 64.5729 3 64.5729 3.375Z" fill="#46555F"/>
    <path d="M64.6457 1.57494C64.6457 2.02494 64.2813 2.39994 63.8441 2.39994C63.4068 2.39994 63.0424 2.02494 63.0424 1.57494C63.0424 1.12494 63.4068 0.824942 63.8441 0.824942C64.2813 0.749942 64.6457 1.04994 64.6457 1.57494Z" fill="#46555F"/>
</svg>